<?xml version="1.0" standalone="no"?>
<!DOCTYPE svg PUBLIC "-//W3C//DTD SVG 20010904//EN"
 "http://www.w3.org/TR/2001/REC-SVG-20010904/DTD/svg10.dtd">
<svg version="1.0" xmlns="http://www.w3.org/2000/svg"
 width="1024.000000pt" height="1536.000000pt" viewBox="0 0 1024.000000 1536.000000"
 preserveAspectRatio="xMidYMid meet">

<g transform="translate(0.000000,1536.000000) scale(0.100000,-0.100000)"
fill="#000000" stroke="none">
<path d="M5080 14624 c-146 -28 -301 -98 -406 -183 -261 -211 -408 -651 -374
-1119 39 -549 280 -900 695 -1013 106 -29 345 -32 445 -6 390 104 627 391 707
857 24 137 23 452 -1 585 -29 157 -62 260 -126 390 -94 192 -222 324 -396 409
-127 62 -200 78 -369 81 -82 2 -161 1 -175 -1z m313 -472 c118 -58 203 -182
241 -348 28 -127 40 -349 27 -503 -28 -342 -133 -523 -333 -577 -194 -51 -381
57 -464 269 -54 137 -76 394 -55 633 19 216 67 349 163 450 80 85 156 115 280
110 62 -2 89 -9 141 -34z"/>
<path d="M3148 14582 c-10 -4 -53 -63 -96 -132 -43 -69 -170 -262 -282 -430
-113 -168 -285 -425 -383 -572 l-177 -267 2 -198 3 -198 577 -3 578 -2 2 -228
3 -227 211 -3 c167 -2 214 0 222 11 8 9 13 88 14 228 l3 214 124 3 c71 1 130
7 138 14 10 8 13 55 13 199 0 157 -3 190 -16 203 -12 13 -40 16 -140 16 l-124
0 0 211 c0 126 -4 218 -10 230 -10 18 -23 19 -219 19 -161 0 -211 -3 -220 -13
-7 -9 -12 -90 -13 -228 l-3 -214 -255 -3 c-140 -1 -261 0 -269 3 -11 4 -10 10
6 28 12 12 93 135 180 272 88 138 211 329 273 425 218 336 400 632 394 641 -6
10 -510 11 -536 1z"/>
<path d="M7400 14582 l-45 -3 -69 -112 c-101 -163 -407 -626 -647 -979 l-209
-307 2 -198 3 -198 573 -3 572 -2 0 -218 c0 -156 3 -221 12 -230 9 -9 70 -12
213 -12 143 0 204 3 213 12 9 9 12 71 12 217 0 114 4 211 8 218 5 9 50 13 142
15 l135 3 0 210 0 210 -137 3 -138 3 0 207 c0 157 -3 213 -13 226 -12 17 -31
18 -218 17 -120 -1 -208 -6 -214 -12 -6 -6 -11 -99 -13 -222 l-3 -212 -264 -3
c-157 -1 -265 1 -265 7 0 5 46 80 102 168 55 87 158 248 228 358 70 110 201
313 291 450 254 386 249 375 212 389 -16 7 -388 5 -483 -2z"/>
<path d="M3149 11736 c-101 -27 -184 -99 -231 -202 -20 -41 -23 -66 -23 -159
0 -100 3 -116 29 -172 35 -77 112 -152 181 -179 38 -14 75 -19 155 -19 95 0
110 3 158 28 70 37 123 91 158 163 27 55 29 67 29 179 0 101 -3 127 -21 166
-26 56 -85 123 -136 156 -77 48 -204 65 -299 39z m222 -161 c86 -56 117 -210
65 -320 -27 -58 -47 -78 -99 -100 -82 -34 -185 -10 -244 58 -51 58 -68 160
-41 249 16 53 74 116 123 134 59 21 147 12 196 -21z"/>
<path d="M5447 11739 c-99 -23 -197 -104 -240 -197 -19 -40 -22 -65 -22 -167
0 -104 3 -127 23 -169 34 -76 84 -129 154 -166 54 -29 75 -35 149 -38 61 -3
102 0 140 12 287 86 338 517 81 680 -77 48 -193 67 -285 45z m201 -162 c21
-14 50 -47 66 -77 50 -92 38 -229 -27 -299 -51 -55 -160 -77 -230 -47 -130 56
-172 272 -74 383 67 77 184 94 265 40z"/>
<path d="M2155 11717 c-3 -6 -4 -167 -3 -357 l3 -345 70 0 70 0 5 223 5 224
153 -226 153 -226 70 0 69 0 0 360 0 360 -75 0 -75 0 0 -231 0 -230 -152 230
-153 231 -68 0 c-45 0 -69 -4 -72 -13z"/>
<path d="M3692 11663 l3 -68 93 -3 92 -3 0 -289 0 -290 75 0 75 0 0 290 0 290
88 0 c48 0 93 4 101 9 10 7 12 23 6 70 l-7 61 -264 0 -265 0 3 -67z"/>
<path d="M4650 11370 l0 -360 70 0 70 0 0 140 0 139 128 3 127 3 0 60 0 60
-128 3 -128 3 3 87 3 87 138 3 137 3 0 64 0 65 -210 0 -210 0 0 -360z"/>
<path d="M6032 11453 c3 -309 3 -310 76 -385 44 -46 113 -71 201 -71 98 -1
157 19 212 72 73 71 79 104 79 408 l0 253 -74 0 -75 0 -3 -257 c-3 -281 -6
-295 -64 -321 -35 -17 -110 -15 -144 3 -60 31 -65 54 -68 328 l-3 247 -70 0
-70 0 3 -277z"/>
<path d="M6775 11717 c-3 -6 -4 -167 -3 -357 l3 -345 73 -3 72 -3 0 231 0 231
153 -228 152 -228 68 0 c37 0 67 3 67 8 0 4 0 165 0 357 l0 350 -70 0 -70 0 0
-231 0 -230 -152 230 -153 231 -68 0 c-45 0 -69 -4 -72 -13z"/>
<path d="M7542 11373 l3 -358 175 0 c160 1 180 3 234 24 79 32 146 98 176 177
33 84 33 234 0 318 -27 70 -84 131 -155 166 -47 23 -62 25 -243 28 l-192 4 2
-359z m373 194 c61 -35 89 -93 89 -186 -1 -164 -68 -230 -236 -231 l-78 0 0
220 0 220 93 0 c77 0 98 -4 132 -23z"/>
<path d="M5788 9539 c-114 -100 -205 -276 -164 -317 24 -24 46 -6 72 60 26 66
65 126 134 201 33 36 50 64 50 81 0 40 -27 33 -92 -25z"/>
<path d="M4493 9353 c-13 -2 -23 -10 -23 -16 0 -6 33 -45 73 -86 43 -44 64
-72 52 -68 -11 2 -56 14 -100 26 -193 53 -459 9 -654 -108 -36 -22 -120 -83
-186 -135 -125 -100 -212 -151 -274 -161 -119 -20 -109 -60 38 -150 l60 -37
-34 -47 c-67 -93 -107 -216 -77 -235 5 -3 44 10 88 29 76 34 128 44 138 27 8
-13 -6 -27 -84 -79 -113 -76 -193 -155 -273 -266 l-72 -101 -4 -125 c-3 -133
6 -228 46 -469 l25 -154 -52 -151 c-29 -84 -111 -296 -182 -472 -316 -781
-377 -974 -364 -1142 9 -117 37 -184 105 -253 31 -32 64 -62 74 -67 17 -9 14
-15 -31 -61 -57 -58 -103 -145 -129 -242 -16 -57 -18 -112 -18 -445 1 -217 9
-532 19 -735 10 -195 23 -490 29 -655 l12 -300 -31 -30 c-21 -20 -39 -53 -53
-99 -16 -53 -30 -77 -59 -102 -49 -44 -282 -200 -456 -305 -94 -56 -162 -106
-206 -150 -86 -84 -103 -127 -99 -241 5 -104 24 -135 112 -177 108 -53 175
-66 347 -65 177 0 232 9 509 84 101 27 232 57 290 66 247 38 361 69 433 117
52 35 72 105 71 252 0 105 -6 146 -47 330 -26 116 -57 230 -68 255 -12 25 -21
50 -20 55 12 122 49 420 68 550 27 179 91 535 98 542 8 9 194 -169 190 -181
-8 -22 35 -64 169 -165 295 -221 545 -369 853 -506 l50 -22 -17 -174 c-13
-122 -22 -175 -31 -178 -7 -2 -29 -20 -48 -41 -38 -38 -54 -81 -65 -167 -5
-37 -16 -64 -39 -93 -41 -52 -205 -194 -359 -312 -201 -155 -257 -232 -257
-360 0 -128 29 -178 135 -228 109 -52 206 -72 367 -77 227 -8 340 22 629 163
85 42 197 92 249 111 143 53 234 119 259 186 15 39 13 197 -4 287 -47 255 -80
398 -103 446 -13 29 -12 39 28 165 23 74 45 137 49 141 3 4 74 -4 156 -18 670
-110 1075 57 1262 520 l32 81 178 0 c98 0 367 -2 598 -6 231 -4 605 -8 831 -9
225 -1 422 -4 437 -7 l27 -5 0 -135 c0 -129 1 -135 25 -158 23 -24 29 -25 160
-25 108 0 142 3 168 17 18 9 158 69 312 133 l280 117 -3 144 c-2 79 -9 263
-17 409 -8 146 -22 396 -30 555 -18 334 -71 1064 -85 1175 -15 114 -73 221
-242 445 -79 104 -163 210 -188 235 -24 25 -55 66 -68 92 -28 57 -98 122 -160
151 l-47 22 -1106 0 -1107 0 -6 54 c-29 241 -110 421 -253 558 -67 64 -175
127 -268 156 -136 44 -627 126 -736 124 -42 -1 -69 5 -111 26 -68 33 -108 77
-150 162 l-31 62 43 54 c143 180 144 425 3 567 l-43 43 0 92 c0 102 -20 253
-46 337 -78 261 -246 436 -432 448 -62 4 -63 5 -130 72 -87 87 -148 112 -282
116 -52 1 -105 0 -117 -3z m236 -1024 c73 -73 97 -90 161 -116 l75 -31 50 -93
c28 -51 57 -97 66 -102 40 -25 111 27 154 113 29 58 82 105 134 121 70 21 124
-9 169 -94 24 -47 27 -63 27 -152 0 -81 -4 -109 -21 -146 -27 -57 -82 -119
-152 -171 l-53 -39 7 -48 c8 -64 -13 -218 -43 -316 -68 -218 -217 -402 -397
-490 -77 -37 -189 -52 -283 -36 -142 24 -249 87 -381 225 -97 101 -156 189
-225 335 -41 87 -137 315 -137 326 0 1 28 19 63 40 104 62 166 116 167 146 0
41 -27 45 -70 10 -69 -55 -185 -120 -191 -108 -24 45 -21 55 67 164 152 188
169 215 194 302 l24 81 52 -50 c31 -29 62 -50 75 -50 13 0 36 16 55 38 43 47
161 219 204 294 l32 58 45 -63 c26 -34 85 -101 132 -148z m-909 -5 c0 -7 -44
-42 -97 -77 -139 -90 -335 -301 -319 -342 12 -33 43 -13 111 70 83 102 172
176 291 240 93 51 119 52 119 5 0 -18 -26 -44 -110 -109 -144 -111 -315 -279
-315 -309 0 -41 38 -25 120 49 85 77 307 249 322 249 18 0 20 -34 3 -65 -9
-18 -62 -84 -117 -147 -55 -62 -116 -136 -134 -164 l-35 -51 31 -124 c21 -80
33 -161 37 -229 5 -95 3 -111 -20 -171 -14 -37 -37 -85 -52 -109 -30 -47 -43
-104 -114 -481 -42 -223 -161 -946 -161 -978 0 -6 10 -15 21 -22 17 -8 24 -8
36 3 9 10 33 139 69 374 30 197 61 382 69 409 26 89 328 460 447 548 94 70
100 71 133 37 l27 -28 -18 -123 c-14 -98 -18 -195 -19 -463 l-1 -339 -158
-187 c-222 -266 -403 -437 -588 -557 l-67 -43 -138 0 c-108 0 -157 -5 -218
-21 l-78 -20 -52 36 c-123 84 -167 217 -130 396 32 162 138 459 294 828 104
244 200 489 257 655 l44 128 -29 182 c-64 397 -66 498 -10 592 68 114 228 263
346 323 51 25 173 60 191 54 6 -3 12 -11 12 -19z m65 -919 c62 -151 160 -348
181 -366 10 -8 3 -19 -34 -46 -110 -84 -201 -175 -305 -310 -62 -79 -113 -139
-115 -135 -3 9 34 199 64 333 9 41 34 108 54 149 21 41 45 92 54 113 36 89 30
219 -20 415 -22 87 -22 96 -7 118 15 24 16 24 43 -53 15 -43 53 -141 85 -218z
m1579 119 c15 -32 39 -73 54 -92 35 -47 130 -107 192 -123 28 -7 50 -17 50
-22 0 -22 -96 -250 -155 -367 -103 -206 -217 -358 -337 -450 -113 -86 -310
-104 -438 -40 -55 28 -129 98 -160 154 -17 28 -30 54 -30 58 0 4 15 4 33 1 19
-3 65 0 104 6 62 10 73 9 108 -9 109 -56 199 9 315 227 172 321 207 418 217
611 3 56 9 102 12 102 4 0 19 -25 35 -56z m1031 -341 c175 -55 312 -177 395
-354 63 -135 93 -327 71 -452 -35 -202 -274 -750 -431 -992 -138 -210 -288
-327 -423 -329 -52 0 -78 6 -157 41 -142 62 -260 94 -371 100 -152 9 -262 -26
-360 -115 -46 -41 -51 -43 -81 -33 -38 12 -318 53 -488 72 -63 7 -205 13 -315
14 l-200 0 -13 -60 c-38 -169 -56 -225 -106 -332 -53 -114 -86 -231 -86 -304
0 -40 -35 -115 -58 -124 -25 -9 -38 17 -51 101 -22 150 -13 194 65 296 56 74
59 84 32 102 -24 15 -58 -12 -118 -93 -43 -58 -57 -70 -83 -73 -53 -5 -60 -44
-52 -301 6 -195 5 -218 -10 -223 -24 -10 -34 5 -67 102 -36 105 -46 208 -29
295 11 53 10 64 -3 77 -40 41 -72 -67 -63 -218 5 -86 26 -171 71 -281 5 -11
-2 -19 -21 -28 -32 -15 -41 -6 -79 74 -41 88 -54 160 -54 295 1 200 12 261 66
355 94 162 176 264 407 501 143 148 160 158 317 197 479 119 1252 230 1659
240 76 2 96 5 105 19 17 28 -7 42 -79 46 -36 2 -65 8 -65 13 0 5 35 98 78 206
174 438 204 523 191 539 -7 8 -22 14 -33 12 -16 -2 -29 -22 -53 -83 -17 -44
-37 -99 -44 -122 -22 -71 -32 -50 -26 50 9 147 77 350 171 512 75 129 261 290
321 277 11 -2 43 -11 70 -19z m2798 -797 c59 -29 101 -74 135 -146 15 -32 17
-174 20 -1608 l3 -1573 -106 3 -107 3 -2 1520 c-1 1183 -4 1526 -14 1548 -26
59 14 57 -1105 57 l-1024 0 -6 38 c-3 20 -9 70 -13 109 l-7 73 834 2 c459 2
947 3 1084 3 l250 0 58 -29z m350 -406 c38 -52 81 -107 95 -122 l26 -28 -24
-25 c-13 -14 -27 -25 -31 -25 -4 0 -50 37 -103 81 l-96 81 0 102 1 101 31 -35
c16 -19 62 -78 101 -130z m-2299 121 c17 -19 14 -24 -101 -156 l-118 -136 -12
128 c-6 70 -12 140 -12 156 l-1 27 113 0 c100 0 116 -2 131 -19z m586 4 c10
-13 10 -19 -2 -33 -8 -9 -65 -76 -126 -149 l-110 -132 -109 127 c-145 169
-139 159 -117 183 16 18 32 19 234 19 182 0 220 -2 230 -15z m610 7 c0 -10
-251 -312 -259 -312 -9 0 -241 277 -241 287 0 29 29 33 262 33 131 0 238 -4
238 -8z m600 2 c0 -5 -204 -248 -250 -297 -16 -18 -22 -12 -134 122 -64 77
-116 144 -116 149 0 28 30 32 262 32 131 0 238 -3 238 -6z m-387 -272 c42 -52
75 -98 72 -102 -13 -21 -237 -285 -244 -288 -5 -1 -64 64 -133 145 l-125 148
130 152 129 152 47 -57 c26 -31 82 -99 124 -150z m-657 71 c59 -71 116 -137
125 -148 17 -20 15 -24 -103 -165 -66 -80 -125 -145 -129 -145 -16 0 -249 280
-244 293 4 11 236 291 242 292 1 0 50 -57 109 -127z m-568 -27 c103 -119 119
-142 109 -156 -24 -34 -232 -279 -237 -279 -3 0 -60 66 -126 147 l-121 147 61
71 c33 39 88 102 121 141 33 39 63 71 66 70 4 -1 61 -65 127 -141z m1637 -153
c4 -156 5 -283 1 -283 -7 0 -246 286 -246 295 0 9 231 278 235 273 1 -2 6
-130 10 -285z m-4937 -154 c-7 -4 -50 -17 -97 -29 -47 -12 -105 -33 -129 -46
-42 -25 -180 -157 -317 -302 l-68 -73 -71 16 c-39 9 -79 19 -89 22 -13 3 -4
13 35 40 85 56 184 141 293 248 100 98 142 145 299 339 l80 97 37 -152 c27
-110 35 -155 27 -160z m5387 188 l49 -44 -69 -77 -70 -78 -2 43 c-2 24 -4 87
-5 140 l-3 97 25 -18 c14 -10 47 -38 75 -63z m211 -30 c42 -65 56 -89 52 -92
-2 -2 -29 18 -60 43 -53 43 -56 48 -41 64 22 24 25 23 49 -15z m-2007 -191
c68 -79 122 -148 121 -153 -3 -19 -244 -293 -251 -286 -36 40 -239 287 -239
293 0 3 17 26 37 51 77 92 204 239 207 239 1 0 58 -65 125 -144z m542 57 c40
-49 95 -114 122 -145 l50 -58 -27 -34 c-22 -30 -195 -236 -215 -259 -7 -7
-247 267 -252 287 -2 9 232 295 242 295 4 1 39 -38 80 -86z m633 -54 c65 -78
120 -147 122 -153 4 -10 -229 -288 -245 -293 -9 -2 -244 283 -242 293 3 12
234 293 242 293 3 1 59 -63 123 -140z m816 70 c99 -69 88 -47 105 -212 l7 -58
-96 -97 -95 -97 -106 105 -105 105 0 50 c0 49 3 52 96 158 52 59 97 107 100
107 3 0 45 -28 94 -61z m-2561 -88 c57 -71 104 -132 103 -137 -1 -11 -184
-225 -188 -221 -2 2 -8 80 -14 173 -5 93 -13 202 -16 242 -4 39 -2 72 2 71 5
0 56 -58 113 -128z m280 -331 c67 -79 121 -147 121 -150 0 -8 -226 -276 -239
-284 -4 -3 -28 18 -52 47 -24 28 -79 92 -122 141 -43 49 -77 95 -75 102 3 15
239 297 243 292 2 -2 57 -68 124 -148z m572 18 c57 -67 112 -132 122 -145 18
-23 18 -23 -104 -168 -68 -80 -126 -144 -130 -143 -4 2 -62 67 -128 145 l-122
142 123 146 c68 80 125 145 128 145 4 0 53 -55 111 -122z m608 -27 l120 -144
-40 -46 c-22 -25 -77 -90 -122 -143 -45 -53 -84 -97 -87 -97 -5 -1 -243 276
-248 288 -3 10 239 292 248 289 4 -2 62 -68 129 -147z m461 -148 l-1 -298 -27
31 c-15 18 -73 85 -129 151 l-101 120 126 146 c70 81 128 147 130 147 1 0 2
-134 2 -297z m450 -7 c-39 -40 -77 -81 -85 -92 -13 -17 -14 0 -15 149 l0 169
85 -77 85 -77 -70 -72z m325 14 l7 -95 -63 59 c-35 33 -73 67 -83 77 -19 18
-18 20 50 95 l69 78 6 -60 c4 -32 10 -102 14 -154z m-4170 28 c66 -22 138 -49
160 -60 88 -45 412 -281 453 -331 23 -27 52 -169 52 -252 0 -207 -86 -494
-197 -662 -55 -84 -144 -175 -221 -227 -70 -48 -142 -82 -142 -68 0 5 14 48
31 98 42 122 96 336 115 452 29 180 15 490 -23 520 -21 15 -25 15 -47 -1 -16
-12 -16 -18 -1 -101 41 -237 -1 -511 -143 -926 -33 -96 -81 -238 -107 -315
-26 -77 -49 -141 -50 -143 -1 -1 -59 13 -130 33 -149 41 -399 91 -504 101
l-74 7 7 96 c36 519 126 1307 167 1460 28 103 92 224 142 267 131 111 287 127
512 52z m-2350 12 c61 -11 116 -23 122 -25 8 -3 -7 -33 -41 -82 -149 -219
-169 -279 -170 -538 -1 -162 12 -229 61 -334 40 -84 78 -121 123 -121 l37 0
-25 -122 c-13 -68 -44 -226 -67 -353 l-42 -230 -34 1 c-19 0 -97 6 -175 12
-77 7 -215 12 -307 12 -92 0 -167 1 -167 3 -9 127 -32 709 -36 942 -9 420 4
541 73 667 30 55 97 119 157 150 102 52 278 58 491 18z m1097 -52 c33 -41 106
-201 121 -263 17 -69 28 -135 22 -135 -2 0 -98 49 -212 108 -114 60 -227 117
-251 127 -35 16 -42 23 -38 40 3 11 11 48 18 82 11 61 12 62 47 66 20 2 90 2
156 1 111 -3 120 -4 137 -26z m5331 -79 c145 -136 145 -131 -4 -290 -61 -66
-116 -119 -121 -119 -5 0 -54 45 -109 100 -94 96 -99 102 -99 143 0 40 7 48
106 155 58 61 109 112 113 112 4 0 55 -45 114 -101z m-2033 -103 c67 -80 122
-148 122 -153 0 -9 -234 -292 -242 -292 -8 0 -245 286 -245 296 0 7 235 291
242 293 1 0 57 -65 123 -144z m608 -20 l111 -130 -56 -65 c-30 -36 -85 -103
-121 -148 -37 -45 -70 -82 -74 -82 -4 -1 -63 65 -131 146 l-124 147 125 149
c120 143 125 148 142 130 10 -10 68 -76 128 -147z m566 15 c64 -77 117 -144
118 -148 4 -12 -233 -284 -243 -281 -4 2 -61 66 -127 144 l-119 141 119 142
c66 77 124 141 128 141 5 0 61 -63 124 -139z m-1725 -31 c51 -61 91 -115 89
-120 -4 -13 -150 -182 -153 -178 -1 2 -8 80 -14 173 -6 94 -14 185 -17 203 -3
17 -3 32 -1 32 2 0 45 -50 96 -110z m-3075 -105 c47 -98 60 -169 60 -325 -1
-123 -5 -160 -26 -241 -63 -233 -166 -402 -302 -493 -21 -14 -47 -26 -57 -26
-17 0 -66 41 -225 185 l-44 40 17 93 c14 72 21 92 35 92 32 0 49 13 70 54 24
46 26 86 15 321 -5 96 -4 143 2 130 5 -11 10 -45 11 -75 1 -72 22 -171 43
-203 9 -14 30 -28 47 -32 69 -15 143 70 160 185 24 156 34 190 82 289 l51 103
19 -23 c10 -13 29 -46 42 -74z m5780 -117 c3 -57 9 -145 13 -197 l6 -94 -29
21 c-16 12 -65 55 -108 96 l-80 74 90 100 c49 55 92 101 95 101 3 1 9 -45 13
-101z m-806 -387 l-3 -150 -126 152 -125 152 125 146 126 147 3 -149 c1 -82 1
-216 0 -298z m-1632 294 l122 -143 -126 -152 -126 -153 -39 44 c-21 24 -65 77
-98 117 l-59 73 0 68 0 68 96 111 c52 62 99 112 102 111 4 0 62 -65 128 -144z
m583 -2 c67 -78 121 -144 121 -147 0 -7 -239 -286 -244 -286 -2 0 -61 65 -130
146 l-125 145 93 109 c52 60 107 125 122 144 16 20 32 35 36 33 3 -1 61 -66
127 -144z m586 8 c65 -76 118 -143 117 -147 0 -10 -234 -292 -243 -293 -4 -1
-179 199 -232 265 -17 22 -16 24 105 168 68 80 126 146 130 146 3 0 59 -62
123 -139z m975 -21 c-1 -3 -36 -43 -80 -90 l-79 -85 -1 170 0 170 80 -80 c44
-44 80 -82 80 -85z m-2883 -183 c111 -125 246 -299 275 -353 17 -33 20 -47 12
-65 -10 -21 -13 -19 -59 47 -108 153 -288 387 -384 499 -56 65 -101 124 -101
129 0 14 153 -138 257 -257z m3106 -15 l77 -75 -47 -51 c-26 -28 -82 -89 -126
-135 l-78 -84 -92 89 c-118 113 -117 112 -117 150 0 27 17 51 106 148 l106
116 47 -42 c25 -22 81 -75 124 -116z m-2074 -130 l123 -142 -95 -113 c-53 -61
-110 -129 -129 -149 l-33 -38 -110 126 c-60 70 -116 135 -123 146 -12 16 -1
33 110 168 68 82 126 148 129 147 3 -1 61 -66 128 -145z m596 -17 c55 -64 101
-121 103 -125 4 -10 -235 -290 -246 -290 -4 1 -37 38 -74 83 -37 45 -90 110
-118 144 l-52 62 89 103 c49 57 104 122 123 146 l35 44 20 -25 c11 -14 65 -77
120 -142z m571 20 c65 -80 119 -149 119 -155 0 -11 -236 -280 -245 -280 -8 0
-245 279 -245 289 0 8 238 291 246 291 3 0 59 -65 125 -145z m-1702 -76 l68
-79 -23 -30 c-157 -194 -169 -206 -169 -178 0 6 7 19 16 29 12 13 16 52 21
178 3 89 9 161 12 160 3 0 37 -36 75 -80z m2720 -185 c7 -126 13 -230 12 -231
0 -1 -56 51 -124 115 l-123 117 108 117 c59 65 108 116 110 114 2 -1 9 -106
17 -232z m-334 -3 c-1 -3 -37 -44 -80 -91 l-80 -85 0 163 0 163 80 -72 c44
-40 80 -75 80 -78z m-1556 -84 l116 -139 -19 -26 c-34 -47 -215 -245 -228
-249 -11 -4 -241 251 -244 271 -3 14 245 296 252 288 4 -4 59 -69 123 -145z
m575 9 c68 -79 123 -147 123 -151 1 -10 -234 -285 -243 -285 -4 0 -63 63 -129
140 -108 125 -120 143 -108 158 7 9 54 65 105 124 50 59 99 118 110 132 10 14
18 26 19 26 0 0 56 -65 123 -144z m464 -143 c-3 -153 -5 -281 -6 -285 -1 -4
-57 56 -125 133 l-122 141 37 44 c21 23 76 88 123 143 47 55 88 100 91 100 4
1 4 -124 2 -276z m-1709 219 c21 -26 74 -87 118 -135 l80 -88 -49 -56 c-82
-97 -187 -208 -199 -211 -6 -2 -63 53 -127 122 -91 96 -116 128 -110 142 10
29 229 275 243 273 3 0 22 -21 44 -47z m2412 -173 l122 -114 -96 -98 c-54 -54
-114 -112 -134 -128 l-38 -31 -99 93 -99 92 4 49 c3 46 9 54 101 154 53 57
101 103 107 101 5 -2 65 -55 132 -118z m-2080 -204 c43 -49 85 -98 92 -107 12
-15 0 -16 -175 -11 -103 3 -190 7 -191 9 -2 1 38 50 90 107 51 58 96 102 99
99 3 -4 42 -47 85 -97z m594 -12 l92 -108 -96 -3 c-53 -1 -138 -1 -190 0 l-94
3 96 108 c52 59 96 107 98 107 2 0 44 -48 94 -107z m530 63 c19 -24 64 -76 99
-115 l63 -71 -201 0 -201 0 97 114 c54 63 100 115 103 115 3 0 21 -19 40 -43z
m-1681 -87 l75 -79 -98 0 c-74 0 -97 3 -94 13 3 6 11 42 18 80 8 37 16 66 19
66 3 -1 39 -37 80 -80z m2806 -118 c-3 -2 -51 -6 -107 -7 l-102 -3 100 100 99
100 7 -93 c4 -50 5 -94 3 -97z m-435 -1 c0 -4 -17 -6 -37 -5 -37 2 -38 3 -41
46 l-3 44 40 -40 c23 -21 41 -42 41 -45z m137 -122 l43 -42 -83 -34 c-45 -18
-103 -42 -129 -53 l-48 -19 0 95 0 95 87 0 87 0 43 -42z m233 38 c0 -2 -27
-14 -61 -26 l-61 -23 -26 26 -27 27 88 0 c48 0 87 -2 87 -4z m-6700 -67 c69
-6 128 -15 133 -18 4 -4 1 -56 -8 -116 -8 -59 -24 -192 -35 -294 -26 -243 -30
-255 -88 -292 -43 -27 -156 -69 -187 -69 -7 0 -20 21 -30 48 -26 66 -125 163
-189 185 -27 9 -60 17 -73 17 -13 0 -24 1 -24 3 -5 8 -23 550 -19 554 7 8 377
-4 520 -18z m1825 -114 c203 -29 512 -106 521 -130 4 -11 -133 -483 -174 -599
-9 -26 -27 -57 -40 -67 -24 -18 -102 -50 -154 -63 -27 -6 -28 -5 -28 37 0 133
-89 217 -261 248 -38 7 -69 15 -69 18 -1 20 42 530 46 549 5 27 19 27 159 7z
m-2395 -762 c53 -17 130 -60 130 -72 0 -5 -7 -14 -15 -21 -13 -11 -25 -8 -68
13 -29 15 -83 34 -122 43 -84 20 -97 30 -70 50 22 16 68 12 145 -13z m-153
-108 c66 -20 133 -63 133 -85 0 -27 -20 -25 -88 7 -31 15 -88 34 -126 43 -74
18 -92 34 -54 49 25 10 68 6 135 -14z m2360 -91 c113 -40 124 -48 101 -71 -15
-15 -23 -14 -105 15 -48 18 -117 38 -152 46 -74 17 -78 20 -60 42 19 23 95 12
216 -32z m-186 -98 c111 -24 209 -85 164 -103 -17 -6 -17 -6 -120 31 -38 14
-90 26 -115 26 -55 0 -97 25 -79 46 15 18 65 18 150 0z m-1251 -150 c0 -78
-80 -107 -460 -170 -52 -8 -174 -37 -270 -64 -248 -70 -342 -86 -490 -85 -184
1 -345 49 -377 112 -18 37 -8 41 47 20 197 -75 478 -60 861 45 92 26 226 55
300 66 159 24 263 51 327 85 26 13 50 24 55 25 4 0 7 -15 7 -34z m2120 -170
c-22 -40 -102 -89 -214 -131 -61 -24 -177 -75 -255 -115 -161 -80 -309 -133
-421 -151 -157 -24 -375 7 -510 74 -59 29 -97 68 -85 87 3 4 47 -8 100 -26
149 -52 249 -68 390 -60 66 3 154 14 196 25 93 24 249 83 305 116 78 46 180
93 279 130 102 39 199 88 212 108 13 20 16 -34 3 -57z"/>
<path d="M5319 8039 c-18 -34 -25 -195 -9 -214 17 -21 57 -19 64 3 2 9 6 64 8
122 l3 105 -27 3 c-19 2 -30 -3 -39 -19z"/>
<path d="M4405 8003 c-26 -25 -14 -56 30 -78 53 -26 200 -27 303 -1 77 19 95
36 81 74 -10 26 -29 27 -114 7 -77 -19 -191 -19 -244 -1 -36 13 -42 13 -56 -1z"/>
<path d="M4766 7735 c-38 -32 -65 -39 -127 -32 -64 8 -79 1 -79 -34 0 -34 26
-48 102 -56 91 -10 186 64 159 123 -13 30 -19 30 -55 -1z"/>
<path d="M4247 7599 c-11 -15 -13 -29 -6 -51 4 -16 11 -105 15 -196 4 -92 11
-173 17 -179 15 -20 97 -15 173 8 79 24 94 34 94 61 0 19 -5 20 -57 15 -32 -3
-79 -9 -105 -13 l-48 -7 0 119 c0 139 -13 244 -32 255 -21 14 -36 10 -51 -12z"/>
<path d="M4098 7519 c-10 -10 -28 -19 -41 -19 -36 0 -61 -23 -53 -48 10 -31
49 -37 102 -17 52 20 72 51 55 84 -14 26 -40 26 -63 0z"/>
<path d="M4570 7074 c-52 -19 -140 -80 -140 -98 0 -17 21 -36 40 -36 8 0 32
12 53 26 48 32 109 42 217 33 92 -7 106 -5 114 17 16 43 -30 64 -149 70 -67 3
-102 0 -135 -12z"/>
<path d="M6040 9261 c-64 -20 -239 -123 -287 -170 -29 -27 -31 -71 -4 -71 10
0 53 22 95 50 90 59 145 87 244 125 39 16 72 33 72 40 0 32 -58 44 -120 26z"/>
<path d="M1495 4094 c-153 -25 -307 -83 -421 -162 -76 -51 -190 -169 -242
-250 -166 -257 -191 -604 -64 -884 119 -262 374 -465 657 -523 99 -20 278 -21
371 -2 360 76 648 373 711 737 21 117 13 318 -17 420 -112 394 -443 650 -855
665 -60 2 -123 1 -140 -1z m160 -116 c-84 -70 -227 -219 -278 -290 -26 -37
-65 -100 -87 -140 -67 -124 -140 -374 -140 -478 0 -22 -4 -40 -10 -40 -5 0
-33 9 -62 20 l-53 20 -5 177 c-8 280 -5 443 9 506 11 52 17 61 64 96 154 115
314 167 522 170 l90 1 -50 -42z m265 -19 c134 -51 265 -149 358 -266 l32 -40
-173 -79 c-302 -138 -431 -217 -553 -339 -86 -86 -117 -145 -131 -241 -3 -24
-10 -44 -15 -44 -5 0 -56 12 -114 26 l-106 27 7 56 c25 208 96 407 202 568 79
121 344 363 396 363 10 0 53 -14 97 -31z m-974 -856 c-7 -8 -102 46 -145 83
l-38 33 9 68 c19 142 55 244 124 349 l39 59 8 -294 c5 -161 6 -295 3 -298z
m1436 406 c44 -106 60 -212 56 -364 -2 -81 -7 -138 -14 -145 -16 -16 -139 -46
-269 -67 -120 -19 -499 -23 -585 -6 l-45 9 3 44 c1 24 11 63 22 87 40 91 194
222 374 319 113 60 408 194 421 190 6 -1 22 -32 37 -67z m-1482 -469 c29 -12
31 -16 25 -49 -4 -20 -21 -72 -38 -116 l-31 -80 -27 60 c-25 53 -47 136 -63
231 l-5 32 54 -33 c30 -18 68 -38 85 -45z m177 -70 l60 -21 7 -82 c14 -168 62
-327 125 -414 15 -21 30 -43 34 -50 11 -18 -98 33 -162 75 -71 47 -162 132
-206 192 l-35 47 35 75 c18 41 42 102 51 136 10 34 20 62 24 62 3 0 33 -9 67
-20z m271 -76 c61 -15 112 -32 112 -38 0 -6 15 -43 34 -82 60 -127 210 -261
377 -338 l71 -33 -42 -17 c-107 -43 -267 -63 -375 -47 -68 9 -72 11 -123 68
-62 67 -132 203 -156 303 -20 82 -32 210 -20 210 5 0 60 -12 122 -26z m1027
-41 c-48 -128 -175 -294 -283 -367 -42 -29 -45 -29 -90 -17 -166 44 -370 199
-438 333 l-25 50 83 -7 c161 -15 414 -8 548 14 69 11 145 27 170 34 25 8 47
12 49 11 2 -2 -4 -25 -14 -51z"/>
</g>
</svg>
